<svg xmlns="http://www.w3.org/2000/svg" shape-rendering="geometricPrecision" text-rendering="geometricPrecision" image-rendering="optimizeQuality" fill-rule="evenodd" clip-rule="evenodd" viewBox="0 0 415 511.844"><path fill="#5F3428" fill-rule="nonzero" d="M254.217 255.728c2.363 7.878 5.094 16.457 7.976 25.508 21.865 68.669 51.827 162.801 5.994 211.639h39.65v.038c28.13 0 49.94 0 71.22-20.615 12.309-11.927 17.466-27.168 17.014-42.363-.248-8.309-2.192-16.681-5.578-24.561-3.395-7.904-8.205-15.213-14.173-21.372-11.697-12.073-27.921-19.894-46.756-19.331-5.217.142-9.563-3.971-9.705-9.188-.143-5.216 3.97-9.562 9.187-9.705 24.583-.733 45.68 9.396 60.833 25.036a90.154 90.154 0 0 1 18.026 27.076c4.276 9.951 6.735 20.692 7.058 31.527.603 20.214-6.284 40.516-22.718 56.439-26.785 25.949-51.949 25.95-84.408 25.949v.039H198.55a9.61 9.61 0 0 1-1.207-.076h-85.892c-11.502 0-24.587-2.513-35.002-7.446-10.58-5.013-19.316-12.497-26.064-22.637-28.488-42.795-.335-143.922 17.116-206.605 1.624-5.834 3.144-11.294 4.606-16.72-17.199-10.564-31.775-24.365-42.126-41.009-20.678-33.255-24.414-77.189 1.489-128.4l.843-73.746c.053-6.707 5.533-12.101 12.24-12.049a12.097 12.097 0 0 1 8.275 3.345l.012-.012 34.637 33.099c24.535-9.642 49.307-14.839 74.334-15.055 25.092-.216 50.27 4.606 75.536 15l38.564-36.228c4.892-4.603 12.59-4.369 17.194.524a12.132 12.132 0 0 1 3.27 9.252l-2.149 75.794c14.42 25.577 20.525 48.764 19.976 70.033-.586 22.639-8.598 42.709-22.097 60.874-10.895 14.657-23.763 26.577-37.888 35.946z"/><path fill="#FCC680" d="M242.29 262.886c21.314 69.909 67.006 186.902 5.292 229.989H202.12v-97.719a6.774 6.774 0 0 0-13.549 0V498.22H138.2V395.156a6.774 6.774 0 0 0-13.548 0V498.22h-13.201c-22.233-.364-39.125-7.965-49.794-23.996-27.07-40.668 6.664-150.93 22.627-209.138 17.248 8.531 36.54 14.125 56.492 16.431 34.063 3.937 70.179-1.701 101.514-18.631z"/><path fill="#DCAD70" d="M242.29 262.886c1.839 6.03 3.857 12.409 5.973 19.059-21.858 11.048-51.082 17.804-83.196 17.804-33.092 0-63.117-7.171-85.174-18.823 1.56-5.603 3.04-10.909 4.392-15.84 17.248 8.531 36.539 14.125 56.491 16.431 34.063 3.937 70.178-1.702 101.514-18.631z"/><path fill="#FCC680" d="M44.458 15.3L84.81 53.86c51.134-22.013 102.773-23.803 155.051 0l44.385-41.696-2.261 79.786c28.944 49.436 24.462 88.159.357 120.593C193.166 332.52-41.013 253.674 43.583 91.95l.875-76.65z"/><path fill="#E48F8F" d="M54.458 38.918l23.986 22.844-26.185 22.493 2.199-45.337zm218.278-4.175L248.591 57.42l26.027 22.675-1.882-45.352z"/><path fill="#59342A" fill-rule="nonzero" d="M91.594 163.261a6.897 6.897 0 0 1-4.264 13.116l-82.564-26.79a6.898 6.898 0 0 1-4.427-8.69 6.9 6.9 0 0 1 8.691-4.427l82.564 26.791zm77.355 1.053c.139 4.105.674 7.774 1.543 11.013 1.595 5.95 4.325 10.287 7.758 13.096 3.292 2.694 7.322 4.055 11.662 4.141 2.324.045 4.798-.28 7.352-.964a6.766 6.766 0 0 1 8.282 4.789 6.767 6.767 0 0 1-4.79 8.282c-3.702.992-7.438 1.46-11.108 1.388-7.378-.147-14.277-2.498-19.972-7.157-2.47-2.022-4.696-4.464-6.617-7.333-1.668 2.916-3.656 5.29-5.915 7.213-7.907 6.733-18.152 7.415-29.369 6.127a6.766 6.766 0 0 1 1.534-13.442c7.911.908 14.822.694 19.104-2.953 4.222-3.595 6.848-10.899 6.993-24.2h13.543zm-53.316-51.649c6.763 0 12.245 5.482 12.245 12.245 0 6.763-5.482 12.246-12.245 12.246-6.764 0-12.246-5.483-12.246-12.246 0-6.763 5.482-12.245 12.246-12.245zm96.287 0c6.762 0 12.246 5.482 12.246 12.245 0 6.763-5.484 12.246-12.246 12.246-6.763 0-12.247-5.483-12.247-12.246 0-6.763 5.484-12.245 12.247-12.245zm25.164 63.712a6.897 6.897 0 0 1-4.264-13.116l82.565-26.791a6.897 6.897 0 0 1 4.265 13.117l-82.566 26.79zm-3.023 26.182a6.887 6.887 0 0 1 1.782-13.658l68.951 9.222a6.888 6.888 0 0 1-1.782 13.658l-68.951-9.222zM88.626 188.875a6.907 6.907 0 0 1 1.673 13.71l-70.707 8.784a6.908 6.908 0 0 1-7.692-6.019 6.908 6.908 0 0 1 6.019-7.692l70.707-8.783z"/><path fill="#A96E54" fill-rule="nonzero" d="M150.622 164.314a8.506 8.506 0 0 1 0-17.012h26.309a8.507 8.507 0 0 1 0 17.012h-26.309z"/></svg>
